#!OML:ASF X:\für Bonn\!DataBase\2005_08_12_Daniel\c3d\Daniel.ASF
:FULLY-SPECIFIED
:DEGREES
65
root -3.66828 10.7253 -1.05617 -247.898 -89.8496 224.501
lowerback 43.7496 -2.41128 2.11906
upperback 4.30629 -3.26969 -2.04316
thorax -16.1926 -1.90118 -1.65846
lowerneck 9.68768 2.58695 -1.15599
upperneck -0.404044 3.21444 -0.987908
head -1.77545 1.60803 -0.25594
rclavicle -4.96962e-016 1.11319e-014
rhumerus 67.8586 -1.47356 -121.592
rradius 4.69049
rwrist 87.14
rhand -22.8852 8.39629
rfingers 7.12502
rthumb 3.55399 -21.5538
lclavicle -4.96962e-016 1.11319e-014
lhumerus 64.0054 4.63524 101.367
lradius 9.50508
lwrist -75.8651
lhand -16.8148 2.2303
lfingers 7.12502
lthumb 9.41406 32.0001
rfemur -34.3539 -40.7698 -18.0329
rtibia 121.308
rfoot 345.131 41.8527
rtoes -8.01319
lfemur -582.719 149.514 -172.409
ltibia 121.624
lfoot -21.5757 -39.9083
ltoes 5.47433
66
root -3.66402 10.5195 -1.06122 -274.596 -89.7643 250.797
lowerback 44.2288 -2.44976 2.20637
upperback 4.38685 -3.28323 -2.00669
thorax -16.2447 -1.91802 -1.64397
lowerneck 9.65992 2.58611 -1.14307
upperneck -0.500105 3.21499 -1.02598
head -1.80123 1.61071 -0.270755
rclavicle 6.4605e-016 -2.38542e-015
rhumerus 67.9786 -1.46836 -121.357
rradius 4.67208
rwrist 86.8258
rhand -23.127 8.63899
rfingers 7.12502
rthumb 3.32041 -21.3149
lclavicle 6.4605e-016 -2.38542e-015
lhumerus 64.0524 4.73789 101.337
lradius 9.54654
lwrist -75.5038
lhand -17.1245 1.90687
lfingers 7.12502
lthumb 9.11524 31.6899
rfemur -33.6674 -42.9113 -21.0482
rtibia 123.059
rfoot 346.626 44.3366
rtoes -7.4319
lfemur -583.154 147.552 -170.416
ltibia 123.437
lfoot -20.7258 -41.8682
ltoes 5.75761
67
root -3.6609 10.3167 -1.06684 -288.024 -89.6441 263.79
lowerback 44.7573 -2.49727 2.30158
upperback 4.45468 -3.30202 -1.96594
thorax -16.3247 -1.93751 -1.62451
lowerneck 9.63438 2.59126 -1.118
upperneck -0.57133 3.22445 -1.06709
head -1.81896 1.6175 -0.288761
rclavicle 6.65929e-015 2.42517e-014
rhumerus 68.0617 -1.47853 -121.118
rradius 4.67225
rwrist 86.5687
rhand -23.3817 8.80656
rfingers 7.12502
rthumb 3.07446 -21.151
lclavicle 6.65929e-015 2.42517e-014
lhumerus 64.1355 4.82036 101.321
lradius 9.53104
lwrist -75.146
lhand -17.4324 1.66898
lfingers 7.12502
lthumb 8.81809 31.4647
rfemur -32.5603 -45.1308 -24.5228
rtibia 124.753
rfoot 348.278 46.9365
rtoes -6.80893
lfemur -583.415 145.51 -168.23
ltibia 125.181
lfoot -19.8432 -43.8999
ltoes 6.01924
68
root -3.65725 10.1118 -1.07145 -295.07 -89.5217 270.396
lowerback 45.2973 -2.55979 2.40964
upperback 4.52292 -3.33511 -1.93883
thorax -16.4069 -1.96429 -1.6191
lowerneck 9.58702 2.59582 -1.11039
upperneck -0.661338 3.23218 -1.09804
head -1.83945 1.62353 -0.300406
rclavicle 2.78795e-014 -3.18055e-015
rhumerus 68.1852 -1.49415 -120.888
rradius 4.66734
rwrist 86.2543
rhand -23.6049 9.00344
rfingers 7.12502
rthumb 2.85894 -20.9571
lclavicle 2.78795e-014 -3.18055e-015
lhumerus 64.1644 4.94071 101.289
lradius 9.57763
lwrist -74.8271
lhand -17.7857 1.43974
lfingers 7.12502
lthumb 8.47715 31.2496
rfemur -31.0507 -47.4574 -28.5587
rtibia 126.448
rfoot 350.011 49.5963
rtoes -6.23182
lfemur -583.535 143.304 -165.814
ltibia 126.912
lfoot -19.0049 -46.0485
ltoes 6.28084
69
root -3.65449 9.90372 -1.07634 -298.951 -89.3894 273.833
lowerback 45.8465 -2.61253 2.50775
upperback 4.57925 -3.35464 -1.88974
thorax -16.5 -1.98424 -1.59015
lowerneck 9.53966 2.59933 -1.13006
upperneck -0.751014 3.23562 -1.12064
head -1.86046 1.62728 -0.304605
rclavicle -1.80397e-014 -1.35174e-014
rhumerus 68.1591 -1.54401 -120.612
rradius 4.79263
rwrist 85.965
rhand -23.8407 9.22757
rfingers 7.12502
rthumb 2.6312 -20.7359
lclavicle -1.80397e-014 -1.35174e-014
lhumerus 64.0509 5.07859 101.267
lradius 9.75086
lwrist -74.4898
lhand -18.1909 1.13861
lfingers 7.12502
lthumb 8.08614 30.9639
rfemur -28.9543 -49.8939 -33.3122
rtibia 128.147
rfoot 351.436 52.3609
rtoes -5.91041
lfemur -583.487 140.932 -163.082
ltibia 128.629
lfoot -17.8937 -48.396
ltoes 6.71852
70
root -3.65195 9.69265 -1.08117 -300.194 -89.2674 274.627
lowerback 46.3925 -2.66052 2.60989
upperback 4.64263 -3.3692 -1.85587
thorax -16.5812 -2.0032 -1.58277
lowerneck 9.41977 2.59483 -1.09421
upperneck -0.782699 3.235 -1.18092
head -1.84766 1.62914 -0.328088
rclavicle -1.94809e-014 -2.18663e-014
rhumerus 68.1311 -1.6071 -120.348
rradius 4.95375
rwrist 85.6676
rhand -24.0732 9.45772
rfingers 7.12502
rthumb 2.40662 -20.5085
lclavicle -1.94809e-014 -2.18663e-014
lhumerus 63.9602 5.21043 101.224
lradius 9.92682
lwrist -74.1821
lhand -18.5223 0.860312
lfingers 7.12502
lthumb 7.7662 30.6977
rfemur -26.2988 -52.2611 -38.796
rtibia 129.849
rfoot 353.296 55.2342
rtoes -5.32294
lfemur -583.164 138.339 -159.934
ltibia 130.338
lfoot -16.7548 -50.9168
ltoes 7.13028
71
root -3.65003 9.4811 -1.08568 -301.791 -89.155 275.759
lowerback 46.9688 -2.71469 2.70322
upperback 4.67513 -3.39148 -1.82038
thorax -16.7057 -2.02406 -1.56365
lowerneck 9.38533 2.60518 -1.15355
upperneck -0.851162 3.24415 -1.16025
head -1.8654 1.63442 -0.312147
rclavicle 4.47266e-016 3.18055e-015
rhumerus 68.0736 -1.66791 -120.084
rradius 5.08115
rwrist 85.343
rhand -24.3051 9.60642
rfingers 7.12502
rthumb 2.18275 -20.3622
lclavicle 4.47266e-016 3.18055e-015
lhumerus 63.8093 5.34727 101.197
lradius 10.1199
lwrist -73.9129
lhand -18.8302 0.603107
lfingers 7.12502
lthumb 7.46903 30.4512
rfemur -22.939 -54.4769 -45.1102
rtibia 131.534
rfoot 354.982 58.165
rtoes -4.84599
lfemur -582.525 135.677 -156.392
ltibia 132.006
lfoot -15.2397 -53.6036
ltoes 7.67586
72
root -3.64776 9.26778 -1.08986 -304.142 -89.0636 277.645
lowerback 47.5 -2.75928 2.7769
upperback 4.7379 -3.41467 -1.78779
thorax -16.7761 -2.04525 -1.53852
lowerneck 9.36753 2.60837 -1.18993
upperneck -0.952387 3.2446 -1.17512
head -1.89597 1.63665 -0.311557
rclavicle -1.75924e-014 2.38542e-015
rhumerus 68.0606 -1.69459 -119.82
rradius 5.19521
rwrist 85.0197
rhand -24.5176 9.72474
rfingers 7.12502
rthumb 1.97747 -20.2458
lclavicle -1.75924e-014 2.38542e-015
lhumerus 63.598 4.88917 100.047
lradius 10.3102
lwrist -72.4253
lhand -19.0611 0.606007
lfingers 7.12502
lthumb 7.24621 30.4619
rfemur -18.925 -56.4331 -52.2251
rtibia 133.213
rfoot 356.346 61.1237
rtoes -4.72187
lfemur -581.562 132.961 -152.465
ltibia 133.661
lfoot -13.8328 -56.3388
ltoes 8.17291
73
root -3.64658 9.05594 -1.09397 -305.084 -88.9591 278.092
lowerback 48.8439 -2.83879 2.8678
upperback 3.7953 -3.43881 -1.76671
thorax -16.6003 -2.0591 -1.51113
lowerneck 9.44402 2.60959 -1.22047
upperneck -1.14411 3.24085 -1.18469
head -1.9736 1.63773 -0.312666
rclavicle 1.95306e-014 -1.51076e-014
rhumerus 68.0534 -1.72277 -119.572
rradius 5.32051
rwrist 84.6673
rhand -24.7662 9.88769
rfingers 7.12502
rthumb 1.73735 -20.085
lclavicle 1.95306e-014 -1.51076e-014
lhumerus 63.4438 4.49514 99.077
lradius 10.5113
lwrist -71.205
lhand -19.1952 0.560341
lfingers 7.12502
lthumb 7.11676 30.4207
rfemur -14.3845 -57.9644 -59.8675
rtibia 134.858
rfoot 357.429 63.9953
rtoes -4.5494
lfemur -580.083 130.224 -147.927
ltibia 135.286
lfoot -12.6525 -59.1389
ltoes 8.48614
74
root -3.6458 8.84719 -1.09855 -307.232 -88.8861 279.734
lowerback 49.4046 -2.87973 2.94339
upperback 3.85766 -3.46087 -1.75514
thorax -16.6222 -2.08198 -1.50991
lowerneck 9.42155 2.59917 -1.24394
upperneck -1.30702 3.22564 -1.18336
head -2.02397 1.63256 -0.309074
rclavicle -1.1281e-014 1.15295e-014
rhumerus 68.0815 -1.7605 -119.319
rradius 5.39987
rwrist 84.3478
rhand -25.0337 9.98921
rfingers 7.12502
rthumb 1.47907 -19.9854
lclavicle -1.1281e-014 1.15295e-014
lhumerus 63.3105 4.14288 98.3209
lradius 10.7068
lwrist -70.2028
lhand -19.3147 0.546718
lfingers 7.12502
lthumb 7.00136 30.4109
rfemur -9.3402 -59.0844 -68.1283
rtibia 136.491
rfoot 358.02 66.7659
rtoes -4.45182
lfemur -578.17 127.621 -143.005
ltibia 136.848
lfoot -11.541 -61.8914
ltoes 8.80523
75
root -3.64545 8.64151 -1.10201 -309.065 -88.8047 281.055
lowerback 49.96 -2.94115 3.03081
upperback 3.93261 -3.50424 -1.75051
thorax -16.6259 -2.11517 -1.51147
lowerneck 9.35503 2.60032 -1.27013
upperneck -1.46084 3.22703 -1.17393
head -2.06355 1.63536 -0.302399
rclavicle 2.83765e-014 -1.78906e-014
rhumerus 68.1064 -1.74913 -119.093
rradius 5.46363
rwrist 84.0304
rhand -25.2598 10.0895
rfingers 7.12502
rthumb 1.26064 -19.8866
lclavicle 2.83765e-014 -1.78906e-014
lhumerus 63.2416 3.83596 97.5332
lradius 10.853
lwrist -69.2849
lhand -19.4044 0.419629
lfingers 7.12502
lthumb 6.91478 30.2867
rfemur -4.1637 -59.7042 -76.5082
rtibia 138.074
rfoot 359.179 69.2839
rtoes -4.10817
lfemur -575.87 125.213 -137.648
ltibia 138.38
lfoot -10.2512 -64.527
ltoes 9.14928
76
root -3.64653 8.44185 -1.10606 -311.203 -88.7579 282.648
lowerback 50.5635 -2.97077 3.05876
upperback 3.99599 -3.53662 -1.72665
thorax -16.6437 -2.14099 -1.46752
lowerneck 9.29736 2.59202 -1.2996
upperneck -1.62116 3.21336 -1.20171
head -2.10637 1.63179 -0.30646
rclavicle 4.80562e-014 1.19271e-015
rhumerus 68.0607 -1.78988 -118.808
rradius 5.59872
rwrist 83.7073
rhand -25.462 10.2186
rfingers 7.12502
rthumb 1.0654 -19.7585
lclavicle 4.80562e-014 1.19271e-015
lhumerus 63.1013 3.58758 96.8997
lradius 11.1303
lwrist -68.4968
lhand -19.3653 0.319457
lfingers 7.12502
lthumb 6.95253 30.1853
rfemur 0.865357 -59.8114 -84.7469
rtibia 139.611
rfoot 359.804 71.6182
rtoes -3.84481
lfemur -573.161 123.121 -131.996
ltibia 139.825
lfoot -8.75619 -66.9987
ltoes 9.52994
